<?xml version="1.0" standalone="no"?>
<!DOCTYPE svg PUBLIC "-//W3C//DTD SVG 20010904//EN"
 "http://www.w3.org/TR/2001/REC-SVG-20010904/DTD/svg10.dtd">
<svg version="1.0" xmlns="http://www.w3.org/2000/svg"
 width="300.000000pt" height="300.000000pt" viewBox="0 0 300.000000 300.000000"
 preserveAspectRatio="xMidYMid meet">
<metadata>
Created by potrace 1.14, written by Peter Selinger 2001-2017
</metadata>
<g transform="translate(0.000000,300.000000) scale(0.100000,-0.100000)"
fill="#000000" stroke="none">
<path d="M2419 2952 c-7 -15 -13 -35 -12 -44 0 -10 -4 -18 -9 -18 -5 0 -6 -5
-2 -12 4 -6 0 -16 -9 -22 -8 -7 -17 -21 -19 -31 -4 -26 -20 -44 -32 -37 -5 3
-6 0 -3 -5 4 -6 0 -16 -8 -23 -8 -7 -15 -19 -15 -27 0 -7 -7 -16 -15 -19 -8
-4 -15 -12 -15 -20 0 -13 -12 -18 -32 -15 -4 0 -5 -8 -3 -19 3 -15 -2 -20 -16
-20 -11 0 -18 -4 -15 -8 3 -5 -10 -21 -29 -37 -19 -15 -35 -33 -35 -40 0 -6
-13 -22 -30 -35 -16 -12 -27 -27 -24 -31 3 -5 -2 -9 -10 -9 -8 0 -18 -5 -22
-12 -5 -7 -3 -8 5 -3 9 5 9 2 0 -13 -7 -12 -15 -19 -17 -17 -6 6 -48 -48 -44
-57 1 -5 -5 -8 -13 -8 -8 0 -15 -7 -15 -15 0 -8 -7 -15 -15 -15 -14 0 -20 -13
-15 -35 1 -5 -1 -7 -5 -3 -9 9 -55 -32 -55 -49 0 -7 -9 -18 -19 -25 -10 -6
-17 -18 -14 -25 4 -9 0 -11 -11 -7 -9 4 -16 2 -14 -3 2 -5 -8 -20 -22 -35 -48
-49 -58 -66 -48 -76 6 -6 0 -8 -16 -7 -14 2 -29 -2 -33 -7 -3 -7 -1 -8 5 -4 7
4 12 3 12 -2 0 -6 -7 -13 -16 -16 -9 -3 -12 -11 -8 -18 5 -8 2 -9 -10 -5 -9 4
-15 3 -12 -1 7 -12 -22 -45 -33 -37 -7 3 -8 0 -5 -9 3 -9 -3 -19 -16 -26 -11
-6 -18 -15 -15 -21 4 -5 1 -9 -5 -9 -6 0 -8 -5 -5 -10 4 -6 1 -9 -7 -8 -7 2
-12 -3 -10 -10 1 -7 -5 -12 -15 -10 -13 2 -17 -2 -15 -16 3 -13 -1 -17 -12
-13 -9 4 -15 3 -14 -1 4 -14 -14 -52 -22 -47 -8 5 -25 -23 -22 -37 1 -5 -4 -7
-11 -5 -6 1 -11 -4 -9 -12 2 -8 -3 -11 -12 -8 -9 4 -16 -3 -20 -18 -4 -14 -15
-29 -26 -35 -11 -6 -20 -17 -20 -25 0 -8 -4 -15 -8 -15 -5 0 -30 -27 -57 -60
-26 -33 -52 -57 -58 -53 -6 3 -7 1 -3 -5 3 -6 2 -13 -4 -17 -6 -4 -8 -11 -4
-16 3 -5 2 -8 -3 -7 -10 4 -59 -44 -55 -54 2 -7 -12 -12 -29 -10 -3 1 -5 -10
-3 -24 1 -16 -2 -24 -9 -21 -12 4 -22 -6 -62 -58 -11 -15 -34 -41 -51 -58 -16
-18 -33 -40 -37 -50 -3 -9 -12 -16 -19 -15 -7 2 -12 -5 -10 -14 2 -11 -3 -18
-13 -18 -8 0 -15 -4 -15 -10 0 -5 -13 -23 -30 -38 -16 -16 -30 -34 -30 -40 0
-5 -7 -13 -16 -16 -8 -3 -12 -11 -9 -16 4 -6 1 -9 -7 -8 -7 2 -12 -2 -11 -9 2
-6 -6 -15 -17 -18 -11 -4 -18 -11 -15 -16 4 -5 1 -9 -4 -9 -6 0 -11 -7 -11
-15 0 -8 -6 -14 -12 -13 -7 2 -12 -3 -10 -9 1 -7 -5 -13 -13 -13 -14 0 -20
-12 -16 -34 1 -5 -5 -6 -13 -3 -9 4 -15 3 -13 -2 1 -5 -14 -26 -33 -47 -19
-22 -34 -42 -32 -46 1 -5 -3 -8 -9 -8 -5 0 -7 -5 -4 -10 4 -6 1 -9 -7 -8 -7 2
-12 -3 -10 -9 1 -7 -4 -13 -12 -13 -8 0 -18 -5 -22 -12 -5 -7 -3 -8 6 -3 8 5
-12 -18 -43 -50 -31 -32 -54 -61 -52 -65 6 -10 -52 -60 -61 -52 -4 4 -4 -1 -1
-11 4 -10 3 -16 -1 -14 -4 3 -13 -1 -20 -9 -7 -8 -9 -14 -5 -14 4 0 -3 -7 -15
-16 -12 -8 -20 -20 -16 -25 3 -6 -2 -9 -12 -7 -10 2 -19 -3 -20 -9 -1 -7 -2
-17 -3 -23 0 -5 -7 -9 -14 -7 -6 1 -11 -4 -10 -10 2 -7 -1 -13 -5 -13 -4 0
-16 -14 -26 -30 -9 -17 -22 -27 -28 -24 -6 4 -8 2 -4 -4 3 -6 -3 -13 -14 -17
-11 -4 -18 -11 -14 -16 3 -5 -6 -19 -20 -30 -13 -11 -28 -28 -31 -39 -4 -11
-11 -18 -16 -15 -5 4 -9 1 -9 -5 0 -6 -5 -8 -12 -4 -7 4 -8 3 -4 -4 3 -6 -3
-16 -14 -22 -12 -7 -19 -18 -16 -25 3 -8 0 -17 -6 -21 -7 -5 -8 -2 -4 7 4 8 0
5 -8 -5 -9 -11 -16 -25 -16 -32 0 -7 -3 -20 -7 -30 -4 -10 -2 -15 3 -11 5 3
11 -3 12 -14 4 -45 6 -50 18 -45 8 3 16 2 18 -3 3 -4 19 -7 36 -6 16 1 30 -2
30 -7 0 -5 5 -6 12 -2 7 4 33 9 58 11 24 1 46 7 48 13 2 5 12 10 23 10 11 0
27 9 36 19 9 11 20 18 25 15 4 -3 8 -1 8 5 0 6 12 17 28 25 15 8 23 15 19 16
-4 0 -2 6 5 14 7 8 17 11 22 8 5 -3 7 2 3 11 -5 12 -1 17 13 17 14 0 18 5 13
17 -4 10 -2 14 4 10 7 -4 21 8 33 28 12 19 26 35 31 35 5 0 9 7 9 16 0 8 4 13
9 9 6 -3 15 4 21 15 6 11 15 18 21 15 5 -4 8 -2 7 2 -2 5 12 24 29 42 18 18
33 37 33 42 0 5 6 8 12 7 8 -2 12 5 10 16 -2 10 1 15 6 12 6 -3 17 6 26 19 10
14 22 23 28 19 6 -4 8 -3 5 4 -10 15 3 42 20 42 9 0 13 6 9 15 -3 9 0 15 9 15
8 0 14 4 13 9 -2 5 9 19 23 33 14 13 23 30 21 37 -3 10 1 12 12 8 9 -4 15 -3
12 2 -8 12 29 52 39 43 5 -4 5 -2 2 4 -4 7 0 17 8 24 8 7 12 17 8 24 -3 6 -3
8 2 4 10 -10 37 11 29 23 -5 8 9 13 28 10 4 0 5 6 2 14 -4 9 0 15 10 15 9 0
16 6 16 13 0 7 9 23 20 35 11 12 20 26 20 32 0 6 5 8 10 5 5 -3 10 -1 10 6 0
6 10 20 22 30 11 11 17 19 12 19 -5 0 2 10 16 21 14 11 18 18 10 14 -8 -4 -3
5 13 19 15 15 24 32 21 38 -4 7 -2 8 4 4 10 -6 38 31 34 46 -1 4 7 10 18 13
11 4 18 11 15 16 -4 5 1 9 9 9 9 0 16 8 16 18 1 16 1 16 14 0 7 -10 18 -18 25
-18 6 0 11 -8 12 -17 0 -17 87 -83 109 -83 5 0 10 -5 10 -11 0 -6 8 -9 18 -7
9 2 23 -3 30 -12 11 -13 12 -13 6 0 -7 13 -6 13 9 1 10 -8 31 -15 47 -16 17
-2 37 -8 45 -15 8 -7 22 -10 30 -6 8 3 15 2 15 -3 0 -11 53 -8 62 4 5 6 8 5 8
-4 0 -10 3 -11 14 -2 10 8 16 9 21 1 4 -7 12 -7 25 0 13 7 21 7 25 0 5 -8 12
-7 23 2 12 10 14 10 8 1 -9 -15 21 -7 44 13 8 7 30 11 48 9 18 -1 48 5 66 15
30 15 34 15 28 1 -5 -13 -3 -14 9 -4 9 7 24 14 35 16 10 1 25 6 32 10 7 5 12
3 12 -5 0 -10 2 -10 9 1 5 7 14 10 20 7 7 -4 10 -2 9 5 -2 9 7 13 24 13 15 -1
26 2 24 5 -6 9 16 26 39 29 11 2 27 12 36 22 9 11 19 16 23 13 3 -3 8 2 12 11
3 9 10 13 16 10 5 -3 24 10 43 30 18 20 39 36 45 36 6 0 8 5 5 10 -3 6 0 10 8
10 14 0 63 60 59 73 -1 4 5 7 14 7 8 0 13 4 10 9 -3 4 4 17 15 27 11 10 18 23
15 30 -3 8 3 10 17 7 18 -4 19 -3 7 6 -11 8 -12 11 -2 11 8 0 10 5 6 12 -5 7
-2 9 9 5 11 -4 14 -2 10 9 -3 7 0 14 7 14 6 0 9 4 6 8 -3 5 2 18 12 28 9 11
18 26 20 34 2 8 8 17 13 18 5 2 7 8 3 13 -3 5 -1 9 5 9 6 0 8 7 5 15 -4 8 -1
15 6 15 7 0 10 7 6 16 -3 8 -2 12 4 9 10 -6 11 0 14 60 0 17 6 33 13 38 6 4
10 18 8 32 -1 14 1 25 5 25 5 0 7 8 5 18 -1 9 2 23 8 30 6 8 6 12 -2 12 -8 0
-7 6 3 16 9 8 14 20 11 25 -4 5 0 9 7 9 8 0 9 3 3 8 -12 9 -18 32 -7 32 4 0 7
24 7 53 0 34 5 57 15 65 13 12 13 13 0 6 -13 -7 -13 -5 -2 8 10 13 10 17 0 21
-9 4 -10 6 -1 6 7 1 10 8 7 16 -4 8 -2 21 3 28 6 6 9 31 8 55 -1 29 3 46 14
52 13 7 13 10 1 26 -8 10 -10 15 -3 11 8 -5 11 4 9 30 -2 21 2 44 8 52 8 11 8
13 0 8 -6 -3 -11 0 -11 8 0 8 4 12 9 9 4 -3 8 -1 8 5 0 5 12 5 30 -2 17 -6 30
-15 30 -20 0 -5 7 -4 15 3 8 6 19 9 25 5 15 -9 12 1 -6 19 -8 9 -11 16 -5 16
5 0 3 13 -5 30 -9 17 -18 30 -20 30 -3 0 -2 -5 2 -12 4 -6 3 -8 -4 -4 -6 3 -9
15 -7 26 2 12 -5 26 -17 34 -11 8 -17 19 -14 25 4 5 2 12 -4 16 -6 4 -8 11 -5
16 4 5 -1 9 -10 9 -11 0 -15 5 -11 15 3 8 2 15 -3 15 -4 0 -16 15 -26 34 -10
18 -23 33 -29 32 -6 0 -13 4 -15 9 -11 23 -26 33 -33 21 -5 -7 -8 -3 -8 9 0
11 -9 26 -21 33 -12 7 -19 16 -16 19 3 3 -10 19 -29 36 -19 18 -34 38 -34 45
0 7 -4 10 -10 7 -5 -3 -10 1 -10 10 0 9 -4 14 -8 11 -5 -3 -15 6 -22 19 -7 14
-19 25 -26 25 -6 0 -14 9 -17 21 -3 12 -10 18 -16 14 -6 -3 -8 0 -5 9 3 9 -2
17 -15 21 -12 3 -19 10 -17 14 3 4 -3 7 -13 8 -11 1 -24 -10 -32 -25z m75 -87
c8 -8 17 -24 21 -35 4 -11 12 -17 21 -13 9 3 14 -1 14 -11 0 -9 7 -19 15 -22
8 -4 15 -12 15 -20 0 -8 7 -14 16 -14 8 0 12 -4 9 -10 -3 -5 1 -10 9 -10 15 0
21 -12 17 -33 -1 -5 3 -6 8 -2 12 7 43 -49 33 -60 -4 -5 -2 -6 3 -2 6 3 17 2
25 -4 18 -10 17 -11 -80 -13 -36 -1 -69 -4 -75 -7 -5 -4 -18 -5 -27 -4 -11 2
-15 -2 -11 -13 4 -10 2 -13 -5 -8 -7 4 -10 -1 -7 -14 2 -11 -1 -20 -6 -20 -6
0 -7 -6 -2 -12 13 -23 14 -50 1 -43 -7 4 -5 0 4 -7 11 -9 14 -19 8 -28 -5 -8
-6 -19 -2 -25 10 -16 11 -36 1 -29 -5 3 -9 0 -9 -5 0 -6 8 -11 18 -12 15 0 15
-1 -2 -8 -14 -5 -16 -10 -8 -15 16 -10 15 -29 0 -20 -7 4 -6 -1 3 -12 8 -10
15 -31 14 -45 -1 -18 3 -25 12 -22 7 3 14 0 14 -6 1 -6 2 -15 3 -20 1 -12 67
-71 78 -71 5 0 6 -5 2 -12 -4 -6 -3 -8 3 -5 6 4 21 -2 33 -13 12 -11 26 -17
31 -15 20 13 35 -36 33 -112 -2 -101 -1 -96 -20 -89 -14 5 -15 4 -4 -9 10 -12
10 -15 -1 -16 -10 0 -11 -2 -1 -6 6 -2 9 -10 5 -16 -4 -7 -9 -23 -9 -37 -1
-14 -2 -31 -3 -38 -1 -7 -6 -10 -12 -7 -6 4 -5 -3 3 -15 11 -18 11 -23 -6 -36
-11 -8 -14 -14 -8 -14 9 0 10 -5 3 -19 -6 -10 -7 -21 -4 -25 3 -3 -2 -15 -11
-25 -10 -11 -19 -37 -21 -58 -1 -20 -7 -39 -13 -41 -6 -2 -8 -10 -5 -19 4 -10
2 -14 -4 -10 -6 4 -13 -3 -16 -14 -4 -14 -10 -18 -19 -13 -10 6 -10 4 1 -9 11
-13 11 -17 1 -17 -8 0 -10 -3 -7 -7 4 -3 0 -11 -9 -17 -8 -6 -17 -20 -18 -31
-2 -11 -9 -19 -16 -17 -7 2 -10 -3 -7 -12 4 -9 -1 -17 -13 -21 -10 -3 -21 -17
-24 -31 -4 -14 -11 -22 -16 -19 -6 3 -10 -1 -10 -9 0 -9 -8 -16 -17 -16 -15 0
-16 -2 -3 -10 13 -8 12 -10 -3 -10 -10 0 -15 -5 -12 -10 3 -6 3 -10 -2 -10 -4
0 -24 -15 -44 -33 -70 -62 -89 -77 -89 -66 0 6 -9 1 -20 -12 -10 -13 -19 -20
-20 -16 0 5 -7 2 -15 -7 -8 -8 -24 -13 -35 -11 -11 2 -19 1 -19 -3 3 -20 -2
-32 -11 -27 -5 3 -16 3 -22 -2 -14 -8 -19 -10 -44 -12 -8 0 -13 -5 -10 -9 3
-5 -1 -9 -9 -9 -8 0 -12 4 -9 8 4 8 -48 -7 -78 -22 -10 -5 -18 -4 -21 4 -4 8
-6 6 -6 -3 -1 -12 -12 -15 -51 -14 -27 0 -48 -2 -45 -5 5 -10 -68 -7 -84 3 -9
6 -12 5 -8 -1 3 -5 -11 -9 -34 -10 -23 0 -39 4 -39 11 0 7 -3 7 -8 1 -8 -12
-52 -16 -52 -5 0 4 -12 6 -27 5 -33 -2 -55 4 -49 14 5 7 -16 12 -62 15 -14 0
-20 6 -17 14 3 7 0 10 -5 7 -12 -8 -53 19 -43 28 3 4 -1 7 -10 7 -26 0 -66 40
-60 58 4 10 2 13 -5 8 -7 -4 -12 -3 -12 3 0 6 25 10 60 10 33 -1 58 -5 55 -9
-3 -5 2 -7 11 -6 8 1 19 8 23 15 6 9 11 8 21 -4 10 -11 16 -13 26 -4 8 6 31
13 51 15 21 2 44 5 51 6 6 1 12 7 12 13 0 8 11 11 30 9 17 -2 30 1 30 7 0 6 5
7 12 3 6 -4 16 -1 22 7 6 8 27 15 46 17 56 4 59 5 57 16 -1 5 7 10 18 10 11 0
22 3 25 6 3 4 31 17 63 30 31 13 57 28 57 32 0 5 4 7 9 4 4 -3 19 3 31 14 12
11 27 17 33 13 6 -4 7 -1 3 6 -5 8 0 14 13 18 12 3 21 10 21 16 0 6 3 7 7 4 3
-4 17 5 30 19 13 15 28 22 36 18 6 -4 9 -4 5 0 -3 4 14 27 38 51 24 24 44 49
44 55 0 6 5 8 12 4 8 -5 9 -2 5 10 -4 9 -3 15 2 12 5 -3 15 2 22 11 12 14 12
16 -1 8 -8 -4 -3 5 13 22 15 16 27 37 27 47 0 10 4 14 12 10 8 -5 9 -2 5 9 -3
10 -2 17 4 17 6 0 9 8 7 18 -2 9 3 22 11 28 11 9 15 33 16 89 1 42 6 80 11 83
11 8 17 35 18 79 1 18 5 33 10 33 4 0 5 7 2 16 -3 8 -2 12 4 9 6 -3 10 -1 10
4 0 6 -4 11 -10 11 -5 0 -10 5 -10 11 0 5 5 7 12 3 7 -4 8 -3 4 5 -4 6 -11 9
-16 6 -4 -3 -11 2 -14 11 -4 9 -9 14 -13 10 -4 -3 -17 4 -31 16 -13 13 -27 22
-30 22 -4 -1 -6 3 -4 9 2 7 0 9 -3 5 -11 -10 -47 11 -40 23 4 5 3 9 -2 8 -24
-4 -43 3 -43 16 0 13 -6 17 -26 14 -3 0 -14 9 -23 20 -10 11 -22 17 -26 13 -5
-4 -5 1 -2 11 4 10 3 16 -2 13 -12 -8 -52 29 -43 39 4 5 0 6 -10 2 -11 -4 -18
1 -21 15 -3 11 -10 17 -16 13 -6 -3 -11 0 -12 7 0 7 -2 25 -3 40 -1 14 1 25 5
22 7 -4 23 26 21 39 -1 4 1 6 5 6 21 -3 33 2 33 16 0 8 5 14 12 13 7 -2 12 2
13 7 0 6 32 43 72 82 40 40 81 87 91 106 10 19 26 43 36 52 9 10 15 24 12 32
-3 8 -2 12 3 9 9 -6 24 18 26 39 3 35 34 45 59 20z m191 -319 c-8 -11 -19 -31
-25 -43 -5 -12 -18 -27 -30 -33 -28 -15 -27 -56 3 -66 31 -11 33 -11 73 -13
19 0 33 -5 30 -10 -3 -5 1 -12 10 -15 8 -3 12 -10 9 -16 -3 -5 -1 -10 5 -10 7
0 8 -6 1 -18 -6 -10 -6 -24 -1 -32 5 -8 6 -19 2 -25 -4 -5 -7 -28 -7 -50 0
-36 -3 -40 -28 -43 -19 -2 -34 4 -48 20 -11 13 -17 16 -13 8 7 -15 -7 -3 -61
50 -14 13 -25 31 -25 38 0 7 -5 10 -12 6 -8 -5 -9 -2 -5 9 3 9 2 19 -4 23 -6
4 -6 11 2 20 7 8 7 14 1 14 -13 0 -10 63 3 72 7 5 6 8 0 8 -9 0 -12 51 -6 115
1 17 3 18 11 5 6 -9 10 -10 10 -3 0 7 19 13 48 15 67 4 76 0 57 -26z m99 -15
c9 -16 12 -32 8 -36 -4 -3 0 -5 8 -3 8 2 15 -4 15 -13 0 -9 8 -24 18 -33 20
-20 16 -31 -13 -39 -12 -3 -23 1 -28 10 -6 9 -27 16 -56 18 -25 1 -49 5 -52 8
-8 8 5 29 15 23 4 -3 7 4 8 14 1 14 48 76 60 79 1 1 9 -12 17 -28z m-710 -192
c-3 -6 2 -9 12 -7 11 2 18 -2 17 -9 -2 -7 2 -13 7 -13 6 0 23 -12 37 -27 15
-16 23 -21 19 -13 -4 8 -1 6 8 -5 8 -11 20 -24 26 -30 32 -29 50 -45 53 -45
23 -3 46 -14 41 -21 -3 -5 2 -9 11 -9 8 0 18 -7 21 -15 4 -8 13 -15 21 -15 9
0 24 -9 34 -21 10 -11 23 -18 28 -14 6 3 11 0 12 -7 0 -7 2 -21 4 -30 2 -10
-1 -20 -6 -24 -5 -3 -7 -10 -3 -15 3 -6 -2 -19 -12 -30 -12 -13 -13 -19 -4
-19 8 0 9 -4 3 -12 -5 -7 -9 -43 -8 -81 1 -56 -2 -66 -14 -62 -9 3 -12 3 -9 0
4 -4 0 -24 -7 -46 -8 -21 -11 -39 -8 -39 4 0 -2 -7 -13 -15 -10 -8 -16 -15
-11 -15 4 0 -2 -9 -13 -20 -12 -12 -18 -26 -14 -32 5 -8 1 -9 -12 -4 -10 4
-15 4 -11 0 7 -8 -38 -74 -60 -87 -7 -5 -11 -12 -8 -18 4 -5 -2 -6 -11 -2 -12
4 -15 3 -10 -5 4 -7 4 -12 -1 -12 -8 0 -47 -29 -85 -64 -10 -9 -18 -13 -18 -9
0 4 -7 -2 -15 -14 -9 -14 -23 -20 -35 -18 -11 2 -18 0 -15 -6 4 -5 1 -9 -5 -9
-6 0 -9 -4 -6 -8 3 -5 -8 -8 -25 -7 -16 1 -33 -3 -36 -8 -4 -6 -1 -7 8 -2 12
7 12 6 1 -7 -7 -9 -22 -15 -33 -13 -10 2 -19 -1 -19 -6 0 -6 -5 -7 -10 -4 -6
3 -13 -1 -16 -9 -3 -9 -10 -13 -16 -10 -5 3 -17 -1 -26 -10 -10 -8 -35 -17
-57 -20 -22 -2 -42 -5 -45 -6 -3 -2 -9 -2 -14 -1 -5 1 -13 -3 -17 -10 -7 -11
-26 -16 -72 -18 -10 -1 -16 -5 -13 -9 6 -10 -7 -12 -174 -16 -80 -2 -148 -4
-152 -5 -4 0 -10 -11 -13 -22 -6 -17 -9 -19 -16 -8 -8 13 -11 7 -8 -17 0 -3
-10 -14 -22 -25 -12 -10 -19 -19 -15 -19 4 0 -6 -14 -23 -30 -16 -17 -33 -39
-36 -50 -4 -11 -11 -17 -17 -14 -8 5 -9 1 -5 -10 4 -10 3 -15 -3 -11 -6 3 -10
1 -10 -5 0 -14 -40 -67 -41 -54 0 5 -4 -1 -10 -14 -5 -13 -13 -20 -19 -17 -6
4 -10 3 -9 -2 4 -15 -13 -43 -22 -37 -5 3 -9 -2 -9 -11 0 -8 -7 -18 -15 -21
-8 -4 -12 -10 -9 -15 3 -5 0 -9 -5 -9 -6 0 -11 -4 -11 -10 0 -13 -37 -50 -51
-50 -5 0 -8 -4 -5 -8 3 -5 -4 -16 -15 -25 -10 -9 -19 -24 -19 -34 0 -9 -3 -13
-7 -10 -3 4 -17 -9 -30 -28 -13 -19 -28 -35 -32 -35 -5 0 -12 -12 -16 -27 -5
-21 -8 -24 -16 -12 -7 12 -9 11 -9 -2 0 -9 -7 -22 -15 -29 -9 -7 -13 -15 -11
-17 7 -8 -18 -32 -27 -26 -4 2 -7 1 -6 -4 4 -15 -13 -43 -22 -38 -5 3 -11 -6
-15 -20 -3 -14 -9 -24 -12 -21 -3 3 -21 -15 -40 -39 -19 -25 -37 -43 -41 -41
-3 2 -12 -2 -19 -10 -7 -8 -9 -14 -5 -14 4 0 -3 -7 -15 -16 -12 -8 -19 -20
-16 -26 4 -7 2 -8 -4 -4 -6 3 -16 -3 -22 -14 -6 -11 -15 -18 -20 -15 -6 3 -7
-1 -4 -9 3 -9 1 -16 -5 -16 -6 0 -11 -7 -11 -15 0 -9 -6 -12 -17 -8 -10 4 -14
2 -10 -4 8 -13 -17 -36 -28 -25 -5 4 -5 -1 -2 -10 4 -11 0 -19 -14 -23 -10 -4
-19 -11 -19 -17 0 -6 -3 -8 -7 -5 -3 4 -15 -3 -27 -16 -12 -12 -28 -22 -36
-22 -8 0 -21 -6 -28 -15 -12 -13 -12 -13 -6 0 7 13 5 13 -9 1 -22 -17 -109
-19 -115 -2 -4 11 -6 11 -13 0 -6 -9 -9 -1 -9 24 0 26 4 37 15 37 8 0 14 3 13
8 -4 11 44 72 52 67 4 -2 13 7 21 21 7 14 21 30 31 35 10 6 16 14 13 19 -3 5
4 14 15 20 11 6 18 15 15 21 -4 5 1 9 9 9 8 0 18 10 21 23 8 24 65 83 78 79 7
-2 11 13 8 30 0 5 6 8 15 8 8 0 13 4 9 9 -3 6 4 15 15 21 11 6 18 15 15 21 -4
5 -1 9 5 9 6 0 8 5 4 13 -5 7 0 6 11 -3 10 -8 16 -10 12 -4 -4 7 4 23 18 35
13 13 25 28 25 33 0 5 18 27 40 48 22 22 40 44 40 49 0 5 7 9 16 9 8 0 12 5 9
10 -3 6 -1 10 5 10 6 0 8 4 5 10 -3 5 -2 10 3 10 5 0 14 11 22 24 7 14 18 22
26 19 10 -4 12 0 8 11 -4 11 -1 16 10 16 8 0 18 11 22 25 5 21 9 23 20 14 12
-10 13 -9 8 5 -4 10 0 18 10 22 9 3 16 10 16 15 0 6 14 23 30 39 17 16 30 33
29 37 -3 20 2 24 16 13 13 -11 14 -10 10 3 -4 9 3 21 17 31 12 9 19 16 15 16
-5 0 3 11 17 24 15 13 26 27 26 31 0 4 18 25 40 46 22 22 41 44 42 51 4 18 22
37 31 31 4 -2 7 3 7 12 0 9 3 14 8 12 7 -4 44 30 40 37 -6 9 44 66 52 61 5 -3
12 5 15 18 4 14 20 34 36 46 16 12 29 27 29 33 0 6 18 28 40 50 23 21 38 38
35 38 -3 0 5 10 17 22 13 13 26 22 30 21 4 -2 4 5 1 14 -5 12 -2 15 9 11 11
-5 15 0 14 15 0 12 4 21 11 20 6 -2 15 6 18 17 4 11 14 20 22 20 9 0 13 3 10
7 -4 3 7 19 23 35 17 15 30 33 30 38 0 6 5 10 10 10 6 0 14 8 17 18 4 9 15 26
25 36 9 10 15 22 13 27 -3 4 5 5 17 2 19 -4 20 -3 8 6 -13 9 -13 11 3 11 9 0
17 4 17 9 0 4 20 30 45 56 24 27 41 53 38 58 -3 6 -1 7 4 4 6 -4 19 3 29 16
19 21 19 21 -1 8 -11 -8 -3 1 17 21 21 19 35 38 31 41 -6 7 12 11 30 8 5 -1 5
3 2 9 -4 6 8 25 26 41 18 16 29 29 25 29 -4 0 -1 6 6 14 7 8 16 12 19 10 4 -2
12 10 19 26 7 16 17 27 23 23 6 -4 8 0 4 9 -4 11 1 18 16 22 12 3 18 8 15 11
-3 4 7 19 23 34 16 16 29 33 29 40 0 9 5 9 20 1 11 -6 18 -16 14 -21z m-154
-69 c0 -5 -5 -10 -11 -10 -5 0 -7 5 -4 10 3 6 8 10 11 10 2 0 4 -4 4 -10z
m750 -629 c0 -5 -7 -11 -14 -14 -10 -4 -13 -1 -9 9 6 15 23 19 23 5z"/>
<path d="M2135 2460 c-3 -6 1 -7 9 -4 18 7 21 14 7 14 -6 0 -13 -4 -16 -10z"/>
<path d="M2056 1433 c-6 -14 -5 -15 5 -6 7 7 10 15 7 18 -3 3 -9 -2 -12 -12z"/>
</g>
</svg>
