<?xml version="1.0" encoding="UTF-8"?>
<svg xmlns="http://www.w3.org/2000/svg" xmlns:xlink="http://www.w3.org/1999/xlink" version="1.1" width="512" height="512" x="0" y="0" viewBox="0 0 512 512" style="enable-background:new 0 0 512 512" xml:space="preserve" class="">
  <g>
    <path fill="#f5feff" d="M265.788 256c0-58.761 45.244-106.941 102.797-111.622H121.622C59.975 144.378 10 194.354 10 256s49.975 111.622 111.622 111.622h246.963C311.031 362.94 265.788 314.76 265.788 256z" opacity="1" data-original="#f5feff" class=""/>
    <path fill="#0db63b" d="M502 256c0-61.646-49.975-111.622-111.622-111.622h-21.793C311.032 149.059 265.788 197.239 265.788 256c0 58.76 45.243 106.94 102.796 111.622h21.794C452.025 367.622 502 317.647 502 256z" opacity="1" data-original="#ff5d7d" class=""/>
    <path d="M426.204 207.848c-3.988 3.82-4.124 10.151-.304 14.14 8.808 9.194 13.659 21.274 13.659 34.013 0 27.118-22.062 49.18-49.18 49.18s-49.18-22.061-49.18-49.18c0-12.739 4.851-24.818 13.658-34.013 3.821-3.988 3.685-10.319-.304-14.14-3.988-3.82-10.318-3.684-14.139.304-12.392 12.937-19.216 29.929-19.216 47.849 0 38.146 31.034 69.18 69.18 69.18s69.18-31.034 69.18-69.18c0-17.919-6.824-34.912-19.216-47.849-3.82-3.988-10.15-4.127-14.138-.304z" fill="#000000" opacity="1" data-original="#000000" class=""/>
    <path d="M390.378 134.379H121.622C54.559 134.379 0 188.938 0 256s54.559 121.621 121.622 121.621H138.5c5.523 0 10-4.478 10-10s-4.477-10-10-10h-16.878C65.587 357.621 20 312.034 20 256s45.587-101.621 101.622-101.621h189.261C277.849 176.146 256 213.566 256 256s21.849 79.854 54.883 101.621H228.5c-5.523 0-10 4.478-10 10s4.477 10 10 10h161.878C457.441 377.621 512 323.062 512 256s-54.559-121.621-121.622-121.621zm.002 223.242C330.18 363.253 275.632 317.455 276 256c-.364-61.46 54.177-107.251 114.38-101.62C446.977 155.897 491.83 202.123 492 256c.182 57.705-51.112 96.896-101.62 101.621z" fill="#000000" opacity="1" data-original="#000000" class=""/>
    <circle cx="183.5" cy="367.62" r="10" fill="#000000" opacity="1" data-original="#000000" class=""/>
    <path d="M390.378 240.22c5.523 0 10-4.477 10-10v-39.69c0-5.522-4.477-10-10-10s-10 4.478-10 10v39.69c0 5.522 4.477 10 10 10z" fill="#000000" opacity="1" data-original="#000000" class=""/>
  </g>
</svg>
