<svg viewBox="0 0 2335.44 675.84" xmlns="http://www.w3.org/2000/svg"><path d="m573.31 297.81c0 27.26 0 54.51.01 81.77 0 2.54.12 5.08.3 7.62.35 5.09 3.43 7.69 8.83 7.36 2.88-.18 5.71-.96 8.58-1.41 1.24-.2 2.5-.36 3.75-.35.41 0 1.03.53 1.15.94.1.35-.25 1.08-.6 1.28-.95.52-1.98.9-3.02 1.24-9.3 3.08-18.6 6.15-27.91 9.21-.86.28-1.72.54-2.61.71-.95.18-1.75-.47-1.87-1.49-.11-.9-.17-1.81-.18-2.72-.07-3.63-.09-7.27-.18-10.9-.03-1.08-.16-2.16-.35-3.22-.15-.83-1.51-1.37-2.19-.85-1.28 1-2.54 2.04-3.72 3.16-3.58 3.4-7.47 6.37-11.78 8.76-20.16 11.19-40.07 9.96-59.35-1.95-12.57-7.77-20.33-19.47-24.85-33.4-3.36-10.36-4.13-21.03-3.2-31.77 1.12-12.93 5.31-24.75 13.59-35.01 5.38-6.67 12.06-11.56 19.65-15.23 10.83-5.23 22.4-7.5 34.37-6.65 11.94.85 22.48 5.51 31.48 13.48 1.36 1.2 2.59 2.55 3.94 3.76.36.32 1.2.67 1.39.51.47-.4.9-1.07.97-1.68.16-1.25.08-2.54.08-3.81 0-19.62 0-39.25 0-58.87 0-.73.01-1.45 0-2.18-.15-5.84-1.85-7.75-7.8-8.26-3.07-.26-6.18-.09-9.27-.15-2.25-.05-3.65-.73-3.11-1.17.81-.66 1.76-1.34 2.75-1.55 3.72-.78 7.49-1.33 11.22-2.06 5.47-1.07 10.27-3.53 14.48-7.18.68-.59 1.39-1.17 2.14-1.66.99-.64 2.33-.1 2.51 1.11.36 2.51.76 5.03.77 7.56.08 11.45.04 22.89.04 34.34v50.69zm-12.66 43.76c0-4.18.06-8.36-.01-12.54-.15-8.53-2.38-16.47-6.95-23.73-3.03-4.81-6.7-9.02-11.03-12.7-12.32-10.47-26.45-14.25-42.17-10.64-16.88 3.87-27.84 14.16-31.82 31.34-2.54 11-2.33 22.01.18 32.93 3.19 13.84 9.06 26.42 18.65 37.06 4.39 4.88 9.18 9.31 15.09 12.38 15.77 8.2 33.51 5.11 45.02-8.24 8.24-9.56 12.52-20.74 13.01-33.33.16-4.17.03-8.36.03-12.54z"/><path d="m1358.88 243.51v31.06c0 1.09.07 2.19-.02 3.27-.13 1.57.51 3.38-1.05 4.55-.91.68-2.53-1.33-3.25-4.32-1.01-4.23-1.79-8.52-2.83-12.74-3.06-12.36-8.57-23.52-16.97-33.12-9.24-10.56-20.73-17.58-34.5-20.54-16.74-3.6-33.18-2.85-49 4.3-18.95 8.56-31.21 23.27-38.5 42.38-3.45 9.04-5.36 18.48-5.52 28.17-.11 6.9-.3 13.84.32 20.69 1.12 12.57 4.6 24.57 10.14 35.94 4.81 9.87 10.84 18.96 18.48 26.81 13.77 14.15 30.12 23.73 49.85 27.09 20.01 3.4 37.72-1.63 53.63-13.94 7-5.41 12.52-12.08 17.5-19.29.93-1.34 1.77-2.77 2.83-4 .93-1.08 2.06-2.03 3.21-2.89 1.01-.75 2.26-.02 2.37 1.17.16 1.71-.34 3.26-1.19 4.67-2.43 4.04-4.74 8.17-7.47 12-5.97 8.38-13.55 15.14-22.14 20.75-9.61 6.28-20.25 9.55-31.6 10.88-4.52.53-9.01.97-13.56.93-24.9-.21-46.45-8.98-64.78-25.63-16.39-14.89-26.6-33.4-30.77-55.12-2.13-11.12-2.16-22.35-.93-33.62.97-8.88 2.73-17.56 5.69-25.98 5.13-14.61 12.85-27.66 23.97-38.5 12.08-11.78 26.33-19.71 42.81-23.7 6.38-1.54 12.83-2.51 19.33-2.85 9.32-.49 18.45 1.05 27.35 3.86 11.74 3.71 22.34 9.53 31.92 17.24 1.55 1.25 3.19 2.4 4.86 3.49.97.63 2.24.13 2.65-1.03.42-1.19.82-2.41.99-3.66.47-3.6.84-7.2 1.21-10.81.22-2.19.57-4.35 1.93-6.14.34-.44 1.21-.66 1.83-.64.34.01.89.72.94 1.16.18 1.62.26 3.25.26 4.88.02 11.08.01 22.16.01 33.24z"/><path d="m166.51 243.73c0 11.08.02 22.16-.02 33.24 0 1.61-.24 3.23-.45 4.83-.09.68-1.17.8-1.74.33-1.71-1.38-1.99-3.43-2.44-5.34-.92-3.88-1.57-7.83-2.55-11.69-3.12-12.34-8.63-23.5-17.07-33.07-9.15-10.36-20.46-17.32-34.04-20.29-19.09-4.17-37.5-2.62-54.86 6.99-12.63 7-21.87 17.24-28.61 29.86-4.58 8.57-7.29 17.72-8.83 27.31-1.68 10.49-1.71 21.05-.67 31.51 2.2 22.08 10.73 41.63 25.12 58.63 8.96 10.58 19.77 18.65 32.27 24.52 12.59 5.92 25.86 8.5 39.71 7.25 9.91-.89 19.03-4.39 27.54-9.55 9.98-6.04 17.89-14.17 24.44-23.72.93-1.35 1.77-2.76 2.78-4.04.89-1.13 1.87-2.25 3.01-3.11.62-.47 1.94-.79 2.42-.45.53.39.76 1.67.58 2.44-.37 1.56-.98 3.1-1.7 4.55-3.12 6.2-7.11 11.83-11.8 16.93-8.2 8.92-17.57 16.31-28.99 20.73-6.44 2.49-13.12 4.07-20.02 4.87-4.52.52-9.03.9-13.57.86-24.7-.23-46.1-8.94-64.32-25.4-16.43-14.84-26.7-33.31-30.92-55.03-.93-4.79-1.41-9.7-1.64-14.58-.61-13.13.67-26.09 4.26-38.79 5.16-18.22 14.15-34.22 28.14-47.08 12.83-11.79 27.89-19.5 45.15-22.59 4.81-.86 9.67-1.6 14.54-1.93 7.47-.5 14.88.51 22.13 2.3 13.78 3.39 26.13 9.75 37.22 18.58 1.7 1.35 3.5 2.58 5.31 3.78.68.46 2.05-.03 2.31-.81.46-1.36.95-2.75 1.14-4.17.49-3.59.83-7.2 1.22-10.81.23-2.19.64-4.32 2.03-6.1.28-.36.96-.65 1.4-.58.43.07 1.08.58 1.13.97.23 1.61.36 3.24.36 4.86.03 11.26.01 22.52.01 33.78z"/><path d="m2205.55 352.92v33.8c0 2.18.02 4.36.17 6.54.23 3.47 2.15 5.74 5.4 6.77 1.89.6 3.88.92 5.84 1.27 2.5.44 5.02.77 7.53 1.19.52.09 1.07.29 1.5.58.42.28.7.75 1.05 1.13-.36.31-.68.79-1.1.9-.69.19-1.44.18-2.16.18-15.64.01-31.27.02-46.91 0-.9 0-1.81-.11-2.7-.27-.27-.05-.62-.39-.68-.66-.06-.28.09-.77.32-.92.59-.39 1.23-.79 1.91-.93 2.31-.48 4.64-.82 6.95-1.29 1.42-.29 2.84-.62 4.21-1.1 2.84-.99 4.44-3.05 4.78-6.03.13-1.08.12-2.18.12-3.27 0-22.53-.04-45.06-.02-67.59 0-5.86-.97-11.57-2.31-17.23-1.01-4.27-2.71-8.28-4.98-12.03-4.5-7.4-10.9-11.93-19.6-13.22-23.52-3.49-40.93 10.31-47.21 27.52-2.27 6.23-3.43 12.64-3.47 19.19-.12 20.35-.06 40.7-.01 61.05 0 2.16.42 4.33.64 6.49.25 2.46 1.77 3.96 3.92 4.78 1.68.65 3.46 1.07 5.22 1.46 2.12.47 4.28.77 6.41 1.21.69.14 1.4.42 1.99.81.37.24.57.8.72 1.25.03.1-.48.53-.76.55-1.81.12-3.63.22-5.44.23-11.27.02-22.54.01-33.82 0-3.45 0-6.91.02-10.36-.03-.89-.01-1.79-.19-2.67-.4-.23-.05-.39-.52-.5-.82-.04-.11.11-.36.24-.44.59-.39 1.16-.95 1.81-1.07 2.67-.51 5.37-.83 8.05-1.31 1.96-.35 3.98-.62 5.83-1.31 2.94-1.09 4.83-3.17 4.85-6.54 0-1.27.03-2.54.03-3.82 0-29.44 0-58.87 0-88.31 0-1.27.04-2.55-.05-3.81-.24-3.49-1.88-5.32-5.42-5.61-3.07-.25-6.18-.07-9.27-.18-1.43-.05-2.85-.31-4.27-.56-.26-.05-.6-.51-.63-.81-.03-.28.24-.8.48-.86 1.9-.55 3.81-1.12 5.76-1.5 2.67-.52 5.42-.68 8.04-1.37 5.13-1.35 9.99-3.33 13.9-7.14.77-.75 1.67-1.39 2.56-2.01.71-.5 2.05.03 2.18.88.22 1.43.39 2.88.45 4.32.11 2.72.07 5.45.21 8.17.05 1.07.38 2.13.65 3.17.18.68 1.19.94 1.77.47.84-.69 1.68-1.38 2.44-2.16 7.6-7.75 16.94-12.4 27.27-15.19 6.69-1.81 13.56-2.69 20.48-2.25 8.24.53 16.16 2.31 23.11 7.17 5.2 3.64 9.08 8.26 11.44 14.2 2.58 6.5 3.92 13.24 3.99 20.18.13 12.17.04 24.35.04 36.52h.05z"/><path d="m820.48 349.71c0 10.72-.05 21.44.03 32.15.03 3.81.42 7.61.51 11.41.09 3.62 2.13 5.69 5.28 6.8 1.69.6 3.51.88 5.3 1.18 2.68.46 5.39.75 8.07 1.25.85.16 1.65.69 2.41 1.15.21.12.23.6.26.92 0 .1-.22.29-.36.31-1.07.15-2.14.39-3.21.39-15.63.02-31.27.02-46.9 0-1.07 0-2.15-.23-3.22-.37-.14-.02-.38-.2-.38-.29.02-.32.03-.8.23-.93.75-.47 1.54-.99 2.38-1.19 2.12-.49 4.27-.81 6.41-1.21 1.07-.2 2.12-.48 3.18-.67 3.94-.72 5.97-3.21 6.44-7.06.18-1.44.22-2.9.23-4.34.01-20.89.08-41.78-.04-62.67-.04-7.45-.9-14.85-2.98-22.05-1.32-4.57-3.28-8.83-6-12.75-4.04-5.84-9.66-9.41-16.48-10.72-20.58-3.93-40.25 6.14-48.24 25.68-2.42 5.93-3.89 12.07-3.9 18.52 0 21.44-.02 42.87-.02 64.31 0 1.45.09 2.9.16 4.36.15 3.08 1.85 5.07 4.63 6.11 1.52.57 3.13.92 4.73 1.25 2.13.45 4.28.78 6.41 1.19.53.1 1.1.22 1.53.5.42.27.89.76.93 1.19.03.3-.58.84-1 .96-.68.2-1.44.19-2.16.19-15.63.01-31.27.01-46.9 0-.9 0-1.81-.09-2.71-.24-.28-.04-.66-.35-.73-.61s.11-.76.33-.89c.77-.44 1.58-.93 2.43-1.09 2.67-.5 5.38-.8 8.06-1.27 1.61-.28 3.21-.63 4.77-1.09 3.52-1.04 5.51-3.36 5.69-7.09.05-1.09.04-2.18.04-3.27 0-29.61 0-59.22 0-88.83 0-1.09.04-2.19-.05-3.27-.31-3.43-2.04-5.3-5.42-5.78-1.25-.18-2.54-.14-3.81-.16-2.54-.03-5.09.02-7.63-.06-.88-.03-1.77-.28-2.63-.53-.28-.08-.64-.49-.65-.76 0-.29.3-.78.57-.85 2.08-.58 4.16-1.16 6.28-1.58 2.66-.54 5.41-.73 8.03-1.43 4.95-1.32 9.63-3.27 13.47-6.83.8-.74 1.66-1.42 2.54-2.06 1-.73 2.21-.29 2.49.99.3 1.41.49 2.85.55 4.29.14 3.45.15 6.9.29 10.35.02.48.39 1.29.7 1.34.63.1 1.43-.04 1.97-.38.75-.47 1.37-1.19 1.99-1.85 7.49-7.91 16.93-12.38 27.22-15.21 6.5-1.79 13.18-2.68 19.93-2.28 9.39.56 18.27 2.74 25.82 8.85 4.21 3.41 7.34 7.55 9.28 12.56 2.03 5.27 3.44 10.71 3.59 16.41.09 3.27.24 6.54.26 9.8.04 9.08.01 18.17.01 27.25z"/><path d="m297.54 352.65c0 11.26.04 22.53-.03 33.79-.02 3.12.43 6.15 1.17 9.16 1.28 5.2 5.45 7.14 10.52 4.97 2.47-1.06 4.59-2.9 6.95-4.26 1.22-.71 2.59-1.18 3.93-1.67.24-.09.73.16.93.4.18.22.15.63.14.96 0 .16-.12.35-.24.48-6.8 8.14-18.23 12.48-28.91 8.4-4.03-1.54-6.75-4.22-7.39-8.64-.39-2.69-.66-5.39-1.04-8.08-.16-1.18-1.53-1.8-2.47-1.1-1.01.76-1.98 1.59-2.88 2.48-8.97 8.86-19.83 13.75-32.19 15.83-5.79.97-11.57 1.17-17.37.9-8.53-.41-16.37-3.08-23.31-8.12-3.41-2.48-6.27-5.48-8.15-9.35-4.85-9.95-2.5-23.33 7.51-30.05 3.94-2.64 8.12-4.79 12.47-6.66 9.85-4.22 20.13-7.21 30.24-10.7 7.2-2.49 14.36-5.07 21.46-7.82 2.69-1.04 5.22-2.54 7.71-4.02 4.42-2.62 6.73-6.76 6.9-11.72.29-8.62-.99-17.03-5.13-24.77-4.49-8.41-11.73-12.69-21.09-13.3-5.97-.39-11.99-.6-17.87 1.05-1.22.34-2.45.65-3.63 1.11-8.33 3.2-12.03 8.44-12.3 17.36-.05 1.63-.01 3.28-.19 4.9-.37 3.36-3.07 7.39-8.07 7.38-.73 0-1.46.03-2.18-.02-4.07-.25-6.26-2.3-6.76-6.41-.72-5.92.8-11.12 4.94-15.53 3.15-3.35 6.7-6.13 10.84-8.12 6.1-2.92 12.54-4.67 19.22-5.67 4.69-.7 9.38-1.2 14.1-.9 4.88.3 9.77.67 14.51 1.99 13.44 3.72 21.88 12.38 25.38 25.83 1.37 5.28 2.22 10.66 2.22 16.14v33.79h.04zm-13.81-5.3h.01c0-4.54.03-9.08-.01-13.62-.01-1.58-.85-2.05-2.02-1.09-4.58 3.74-9.94 5.95-15.41 7.94-2.55.93-5.17 1.7-7.77 2.49-7.11 2.14-14.24 4.22-21.34 6.4-6.09 1.87-12.02 4.17-17.21 7.96-11.36 8.3-12.25 23.03-3.45 33 6.62 7.5 15.01 11.18 25.1 10.85 10.36-.34 19.62-3.53 27.24-10.69 9.45-8.88 14.18-20 14.84-32.88.18-3.44.03-6.9.03-10.35z"/><path d="m1744.45 349.44c0 10.36-.07 20.71.03 31.07.04 3.99.42 7.97.71 11.95.08 1.08.35 2.14.61 3.2 1.21 5.04 4.93 7.12 10.52 4.88 2.32-.93 4.31-2.66 6.49-3.95 1.23-.73 2.54-1.32 3.85-1.9.24-.11.84.09.94.3.2.42.39 1.14.18 1.41-.89 1.13-1.84 2.25-2.93 3.19-5.44 4.7-11.66 7.19-18.97 6.76-2.59-.15-4.99-.85-7.36-1.76-4.35-1.67-6.6-4.92-7.11-9.46-.24-2.16-.3-4.35-.61-6.5-.26-1.85-1.73-2.4-3.13-1.2-2.48 2.12-4.8 4.44-7.36 6.47-7.71 6.11-16.61 9.48-26.2 11.32-6.31 1.21-12.65 1.4-19 1.01-8.91-.56-17.04-3.53-24.06-9.12-9.45-7.52-11.6-19.51-6.73-29.98 1.4-3 3.51-5.5 6.21-7.47 4.13-3.01 8.56-5.45 13.27-7.44 10.04-4.24 20.46-7.41 30.77-10.89 6.53-2.2 13.04-4.49 19.47-6.95 3.04-1.16 6.01-2.62 8.79-4.31 4.99-3.03 7.7-7.39 7.62-13.51-.08-6.04-.6-11.99-2.51-17.72-2.63-7.91-7.18-14.24-15.34-17.31-2.73-1.02-5.49-1.83-8.46-1.86-6.17-.08-12.39-.58-18.39 1.28-2.57.8-5.14 1.85-7.46 3.21-4.72 2.78-7.06 7.16-7.45 12.59-.1 1.45.06 2.92-.12 4.35-.22 1.79-.47 3.62-1.07 5.3-1.15 3.21-3.54 4.88-7.01 5.12-6.5.44-9.47-2.22-9.7-8.71-.12-3.39.81-6.46 2.47-9.35 1.84-3.19 4.31-5.81 7.26-8.03 5.62-4.23 12.02-6.75 18.78-8.35 7.08-1.67 14.28-2.69 21.59-2.21 6.89.45 13.71 1.25 20.12 4.18 8.17 3.73 13.99 9.7 17.3 17.99 2.16 5.41 3.64 11.06 3.68 16.94.07 11.81.02 23.62.02 35.42h.25zm-13.06-3.58c-.1 0-.2-.01-.29-.02 0-3.45.03-6.9-.02-10.36-.01-1.04.24-2.44-1.03-2.8-.67-.19-1.72.35-2.39.84-4.16 3.02-8.77 5.12-13.61 6.73-5.16 1.72-10.34 3.37-15.54 4.99-5.88 1.83-11.82 3.48-17.68 5.4-4.84 1.59-9.45 3.7-13.64 6.68-10.38 7.37-11.87 20.5-5.97 29.98 3.18 5.12 7.7 8.68 13.11 11.1 11.32 5.06 22.53 3.61 33.07-1.86 13.78-7.15 20.8-19.34 22.92-34.4.76-5.37.74-10.85 1.07-16.28z"/><path d="m962.27 348.98c0 10.72-.06 21.44.03 32.16.03 3.8.43 7.61.72 11.41.08 1.08.37 2.14.63 3.2 1.24 5.19 5.31 6.94 10.58 4.77 1.99-.82 3.73-2.23 5.58-3.37 1.23-.76 2.41-1.64 3.71-2.24.54-.25 1.34.07 2.02.13-.07.65.1 1.53-.25 1.91-1.5 1.57-3.03 3.17-4.8 4.41-7.11 5.02-14.86 6.5-23.23 3.63-4.98-1.71-7.72-5.17-8.09-10.48-.15-2.16-.39-4.33-.74-6.47-.18-1.15-1.63-1.6-2.56-.86-.99.79-1.93 1.65-2.84 2.54-8.73 8.52-19.28 13.3-31.18 15.53-6.31 1.18-12.66 1.39-19 .98-8.9-.57-17.04-3.56-24.04-9.17-9.48-7.6-11.5-19.64-6.61-30 1.41-2.99 3.53-5.48 6.24-7.44 4.14-3 8.57-5.42 13.29-7.42 10.04-4.24 20.46-7.4 30.78-10.88 6.53-2.2 13.03-4.5 19.47-6.96 3.04-1.16 6.01-2.63 8.79-4.32 5-3.05 7.64-7.44 7.55-13.55-.09-6.04-.61-11.99-2.53-17.71-2.65-7.91-7.23-14.22-15.4-17.26-2.73-1.02-5.5-1.81-8.46-1.83-5.99-.05-12.02-.6-17.86 1.19-2.58.8-5.17 1.75-7.52 3.07-4.97 2.79-7.46 7.27-7.84 12.92-.1 1.45.06 2.92-.12 4.35-.23 1.79-.49 3.62-1.1 5.3-1.08 2.97-3.28 4.72-6.52 4.97-.72.06-1.45.07-2.18.09-4.06.11-7.03-1.43-7.87-7.2-.54-3.72.33-7.23 2.14-10.49 1.88-3.39 4.45-6.15 7.56-8.47 5.64-4.21 12.03-6.73 18.79-8.31 7.08-1.65 14.29-2.7 21.59-2.18 6.69.48 13.33 1.2 19.61 3.99 8.41 3.74 14.37 9.77 17.75 18.25 2.16 5.42 3.51 11.07 3.67 16.94.04 1.45.17 2.9.18 4.36.02 10.17 0 20.35 0 30.52h.06zm-13.06-3.24c-.12 0-.24-.01-.36-.02 0-3.81.05-7.63-.02-11.44-.04-1.75-1.1-2.3-2.52-1.28-4.61 3.32-9.68 5.74-15.05 7.49-6.2 2.03-12.45 3.9-18.69 5.83-4.68 1.45-9.39 2.76-14.03 4.33-4.82 1.63-9.46 3.7-13.62 6.72-9.58 6.93-12.15 19.4-6.1 29.54 2.99 5.01 7.27 8.58 12.45 11.05 11.8 5.61 23.45 4.11 34.51-1.78 13.56-7.22 20.27-19.36 22.36-34.18.76-5.37.73-10.85 1.06-16.28z"/><path d="m2001.07 406.38c-16.99.4-31.13-6.03-42.73-18.18-6.48-6.79-10.98-14.84-14.12-23.67-2.71-7.6-4.12-15.51-4.12-23.48.02-15.38 3.56-29.98 12.87-42.52 9.64-12.97 22.69-20.53 38.82-22.79 4.7-.66 9.39-1.06 14.1-.93 9.95.28 19.43 2.47 28.03 7.65 11.26 6.78 19.34 16.35 24.31 28.48 4.77 11.64 6.43 23.81 5.29 36.28-1.06 11.53-4.41 22.46-10.84 32.18-9.23 13.96-21.9 22.93-38.61 25.94-4.34.78-8.65.91-12.99 1.02zm-47.72-76.97c.19 3.08.2 6.18.59 9.23 1 7.78 3.2 15.24 6.14 22.51 4.5 11.14 11.07 20.81 20.07 28.79 3.98 3.53 8.48 6.21 13.49 8.05 6.77 2.49 13.67 3.25 20.86 2.29 10.63-1.42 19.26-6.04 25.46-14.93 7.96-11.42 10.02-24.37 9.56-37.84-.23-6.69-1.19-13.36-2.89-19.9-3.5-13.43-9.44-25.45-19.59-35.2-11.42-10.97-24.91-14.51-40.13-10.99-14.93 3.46-24.95 12.77-30.25 27.13-2.48 6.73-3.44 13.71-3.3 20.87z"/><path d="m1508.63 340.5c-.35-12.67 3.11-25.11 10.12-36.53 8.53-13.9 20.52-23.49 36.48-27.35 14.59-3.53 28.82-2.52 42.07 5.35 7.5 4.45 12.64 10.71 15.17 19.15 2.11 7.05-1.11 11.03-5.6 13.09-5.44 2.49-10.96 4.84-16.56 6.94-11.88 4.46-23.86 8.66-35.75 13.1-4.24 1.58-8.4 3.4-12.48 5.36-3.62 1.74-6.79 4.2-9.45 7.25-4.42 5.05-5.83 10.71-3.62 17.18 1.54 4.51 3.72 8.68 6.54 12.49 11.36 15.38 26.57 22.73 45.7 21.21 12.22-.97 22.51-6.54 31.49-14.68 1.88-1.71 3.79-3.38 5.73-5.03.4-.34.94-.55 1.45-.69.3-.08.76 0 .99.18.21.18.37.7.26.91-.58 1.12-1.15 2.28-1.93 3.25-9.01 11.22-20.18 19.45-34.26 22.84-14.87 3.58-29.56 2.94-43.36-4.57-14.59-7.93-24.2-20.1-29.39-35.69-3.52-10.59-3.59-13.78-3.59-23.76zm12.7-9.32c-.34 4.94.46 10.13 1.51 15.28.17.83.56 2.05 1.15 2.27 1.48.55 1.44-1.18 2.06-1.91 1.29-1.51 2.39-3.19 3.75-4.63 3.17-3.33 6.97-5.81 11.17-7.61 5.99-2.56 12.02-5.05 18.1-7.39 6.93-2.66 13.98-5 20.88-7.73 3.18-1.26 6.17-3.02 9.18-4.68 5.37-2.95 6.81-7.67 5.79-13.41-.09-.53-.23-1.06-.38-1.59-3.03-10.41-10.18-16.41-20.5-18.86-4.81-1.15-9.64-1.03-14.56-.19-12.04 2.06-21.8 7.62-28.76 17.76-6.68 9.73-9.75 20.54-9.4 32.68z"/><path d="m2293.34 406.52c-16.21-.26-29.58-3.92-42.4-9.82-.66-.3-1.28-.69-1.93-1-2.52-1.22-3.79-3.05-3.73-6.02.09-4.72-.13-9.44-.29-14.16-.1-2.9-.34-5.79-.51-8.69-.05-.9-.12-1.81-.08-2.72.09-1.74 1.19-3.4 1.75-2.9.75.67 1.42 1.6 1.73 2.55.96 2.93 1.58 5.97 2.59 8.88 6.1 17.43 18.79 26.44 36.78 28.76 6.99.9 13.74.2 20.3-2.3 4.14-1.58 7.72-3.94 10.5-7.5 5.29-6.77 5.05-20.38-1.41-26.8-3.52-3.49-7.26-6.62-11.74-8.73-7.06-3.33-14.19-6.48-21.26-9.78-6.24-2.92-12.5-5.81-18.63-8.96-3.89-2-7.14-4.94-10.23-8.05-9.58-9.65-9.27-25.7-4-34.98 4.55-7.99 11.52-12.86 19.81-16.24 4.77-1.94 9.81-2.72 14.85-3.09 9.71-.72 19.2.69 28.31 4.24 2.35.92 4.59 2.16 6.8 3.41 1.82 1.03 2.93 2.67 3.22 4.8.1.72.32 1.42.4 2.14.8 7.94 1.58 15.89 2.34 23.83.07.71 0 1.45-.14 2.15-.05.27-.47.59-.77.64-.26.05-.67-.17-.87-.4-.35-.41-.66-.88-.84-1.38-.48-1.37-.86-2.77-1.3-4.15-.66-2.08-1.22-4.19-2.01-6.21-5.08-13.05-14.72-21.11-28.24-23.86-8.68-1.77-17.36-.92-24.94 4.74-5.33 3.98-8.17 9.22-8.32 15.77-.18 7.89 2.98 14.43 8.79 19.74 3.93 3.59 8.39 6.37 13.2 8.57 6.77 3.09 13.62 6 20.4 9.08 4.79 2.18 9.59 4.37 14.24 6.82 5.17 2.72 9.65 6.28 13.49 10.84 8.25 9.82 10.28 31.43-6.26 42.26-5.4 3.53-11.23 5.96-17.54 7.08-4.63.82-9.34 1.14-12.06 1.46z"/><path d="m1034.14 299.68c0 28.87 0 57.75.01 86.62 0 2.36.01 4.73.28 7.07.42 3.64 2.56 6.04 6.15 6.73 4.62.89 9.31 1.45 13.95 2.23 1.22.2 2.4.66 3.57 1.09.24.09.49.56.48.85 0 .25-.36.67-.6.7-1.25.17-2.52.32-3.78.32-17.81.02-35.61.02-53.42 0-1.09 0-2.19-.03-3.26-.21-.4-.07-.78-.56-1.03-.95-.07-.11.3-.64.58-.8.62-.35 1.28-.75 1.97-.85 3.05-.46 6.11-.78 9.16-1.22 2.33-.34 4.7-.6 6.94-1.25 3.03-.89 4.97-2.94 5.13-6.28.07-1.45.06-2.9.06-4.36 0-53.93 0-107.87 0-161.8 0-1.63 0-3.27-.15-4.89-.19-1.99-1.28-3.48-3.25-3.91-2.29-.5-4.63-.85-6.97-.97-3.81-.2-7.62-.16-11.44-.27-.26 0-.66-.35-.73-.61-.06-.23.2-.75.42-.81 1.56-.46 3.12-.93 4.71-1.22 3.03-.53 6.13-.75 9.13-1.45 4.64-1.08 8.81-3.31 12.79-5.91 1.82-1.19 3.63-2.42 5.56-3.42 1.84-.95 3.35-.11 3.49 1.87.17 2.53.23 5.08.23 7.62.01 28.69 0 57.38.01 86.08z"/><path d="m1422.2 357.95v29.43c0 2 .07 4 .18 5.99.15 2.61 1.54 4.42 3.88 5.48 3.35 1.51 6.94 2.01 10.55 2.42 3.24.37 6.49.73 9.71 1.23.83.13 1.59.76 2.37 1.18.14.07.32.32.28.41-.11.3-.26.74-.49.8-.68.2-1.41.36-2.13.36-19.08.01-38.17 0-57.25-.01-.54 0-1.09-.08-1.6-.25-.27-.09-.61-.43-.63-.68-.02-.28.2-.71.45-.87.6-.38 1.26-.79 1.94-.92 2.67-.49 5.38-.82 8.05-1.3 1.96-.35 3.95-.69 5.82-1.34 3.01-1.04 4.77-3.24 5.02-6.47.1-1.26.06-2.54.06-3.81 0-29.79 0-59.58 0-89.37 0-1.27.05-2.55-.08-3.81-.31-3.1-1.77-4.52-4.92-4.67-2.72-.13-5.45-.01-8.18-.09-1.07-.03-2.15-.23-3.2-.45-.28-.06-.63-.47-.67-.77-.04-.28.21-.8.45-.88 1.71-.58 3.41-1.34 5.17-1.54 6.91-.8 12.83-3.73 18.21-7.96.57-.45 1.09-.99 1.71-1.35 1.19-.69 2.3-2.19 3.83-1.25 1.36.83 1.33 2.5 1.36 3.96.09 3.81.11 7.63.22 11.44.03.88.19 1.79.5 2.61.1.26 1.07.53 1.29.36.83-.66 1.59-1.45 2.26-2.28 3.79-4.7 7.97-9.01 13.25-12.02 14.17-8.09 28.81-9.06 43.84-2.48 3.64 1.59 6.35 4.03 7.89 7.83 2.09 5.17-1.03 11.83-7.91 11.73-3.56-.05-6.41-.96-8.29-4.12-1.02-1.71-2.02-3.45-3.16-5.09-1.25-1.78-2.56-3.52-4.01-5.13-1.62-1.81-3.79-2.96-6.15-3.27-9.03-1.17-17.31.33-24.25 6.85-6.88 6.46-10.8 14.5-13.09 23.44-1.49 5.81-2.37 11.72-2.31 17.77.1 9.63.03 19.26.03 28.88h-.02z"/><path d="m369.47 357.98v28.34c0 2.18.1 4.36.14 6.54.07 3.08 1.63 5.1 4.44 6.22 3.23 1.29 6.63 1.81 10.06 2.19 3.24.36 6.49.73 9.71 1.24.83.13 1.59.77 2.36 1.2.13.07.3.33.26.42-.12.29-.29.74-.51.79-.88.2-1.78.36-2.68.36-18.54.02-37.08.02-55.62 0-.9 0-1.81-.13-2.69-.3-.25-.05-.59-.44-.6-.69-.01-.29.22-.7.48-.86.61-.37 1.26-.78 1.95-.9 2.67-.48 5.38-.81 8.05-1.3 1.96-.36 3.95-.7 5.82-1.35 3.01-1.05 4.75-3.26 4.99-6.49.1-1.27.06-2.54.06-3.81 0-29.79 0-59.58 0-89.37 0-1.45.04-2.92-.15-4.35-.33-2.49-1.82-3.92-4.33-4.06-2.72-.15-5.45-.03-8.18-.12-1.25-.04-2.5-.25-3.74-.47-.27-.05-.63-.49-.66-.77s.24-.79.49-.87c1.71-.57 3.41-1.32 5.18-1.52 6.91-.8 12.83-3.74 18.21-7.97.14-.11.27-.25.42-.35 1.63-.96 2.99-3.36 5.09-2.16 1.91 1.1 1.34 3.58 1.4 5.55.11 3.63.11 7.27.24 10.89.02.65.33 1.57.8 1.85.96.55 1.65-.3 2.24-.99 1.66-1.92 3.22-3.94 4.97-5.78 6.98-7.33 15.43-11.69 25.49-13.5 8.91-1.6 17.33-.52 25.61 2.64 1.85.71 3.61 1.71 5.31 2.75 2.61 1.6 4.11 4.15 4.88 6.99 1.52 5.56-2.35 10.52-7.73 10.65-4 .1-7.12-.96-9.13-4.6-.88-1.59-1.82-3.15-2.85-4.64-1.13-1.64-2.29-3.28-3.63-4.74-2.17-2.37-4.94-3.5-8.17-3.85-11.36-1.26-20.18 3.04-27.05 11.91-4.19 5.41-6.83 11.56-8.52 18.11-1.5 5.8-2.49 11.7-2.43 17.75.1 9.81.03 19.62.03 29.43h-.03z"/><path d="m1797.79 334.23c0-15.62 0-31.23 0-46.85 0-1.09.02-2.18 0-3.27-.09-4.07-.28-4.31-4.35-4.37-4.72-.07-9.45-.01-14.17-.03-1.09 0-2.19-.03-3.25-.21-.46-.08-.84-.58-1.26-.88.4-.5.71-1.28 1.21-1.45 4.52-1.45 9.28-1.55 13.92-2.35 1.95-.34 3.92-.72 5.82-1.27 3.68-1.08 5.73-3.77 6.49-7.39.85-4.08 1.56-8.19 2.19-12.31.52-3.4.79-6.84 1.3-10.25.15-1.04.57-2.1 1.1-3.02.71-1.23 3.23-1.08 3.67.26.55 1.7.99 3.5 1.04 5.27.14 5.26.04 10.53.06 15.8.02 3.81.05 7.63.15 11.44.08 3.1.44 3.51 3.46 3.54 8.36.09 16.72.1 25.07.14 1.45 0 2.92-.06 4.36.09.61.06 1.18.58 1.76.9-.41.52-.73 1.36-1.24 1.5-2.09.56-4.23.99-6.37 1.32-5.19.79-10.41 1.39-15.58 2.3-2.3.4-4.54 1.24-6.73 2.08-3.2 1.23-4.93 3.58-4.85 7.11.02.91-.01 1.82-.01 2.72v78.99c0 4.72-.02 9.45 1.6 13.99 1.8 5.05 4.73 8.96 10.21 10.42 1.63.43 3.16.48 4.81.04 3.06-.82 5.74-2.27 8.04-4.4 2-1.85 3.87-3.83 5.83-5.72.78-.75 1.6-1.49 2.51-2.06.36-.23 1.15-.18 1.49.07s.5.92.51 1.41c0 .51-.16 1.11-.45 1.53-5.09 7.55-11.26 13.9-20.38 16.28-8.81 2.3-16.57-.12-22.88-6.6-3.45-3.55-4.32-8.3-4.86-13.03-.24-2.16-.17-4.35-.17-6.53-.01-15.07 0-30.15 0-45.22z"/><path d="m650.91 337.4v48.49c0 2.36.16 4.72.12 7.08-.06 3.65 1.95 5.8 5.14 6.85 2.22.73 4.58 1.07 6.9 1.43 3.23.5 6.48.8 9.71 1.29.64.1 1.22.68 1.81 1.07.13.09.28.34.24.44-.11.3-.29.8-.49.82-1.61.2-3.23.41-4.85.42-11.45.03-22.9.02-34.35.02-6 0-11.99 0-17.99-.01-1.09 0-2.19-.03-3.26-.21-.41-.07-.74-.59-1.11-.9.36-.38.66-.83 1.08-1.11.44-.29.98-.51 1.5-.58 3.23-.44 6.48-.78 9.71-1.26 2.33-.34 4.69-.65 6.92-1.34 3.05-.94 4.77-3.2 5.07-6.42.1-1.08.07-2.18.07-3.27 0-29.78 0-59.57 0-89.35 0-1.09.05-2.19-.06-3.27-.33-3.4-2.07-5.37-5.47-5.72-2.7-.27-5.45-.11-8.17-.2-1.81-.05-3.62-.14-5.42-.34-.4-.05-1.04-.69-1.02-1.03.02-.4.58-.99 1.01-1.11 1.92-.52 3.87-.93 5.82-1.31 2.84-.56 5.74-.9 8.54-1.61 4.8-1.23 9.24-3.25 12.94-6.67.67-.61 1.36-1.2 2.09-1.75 1.53-1.14 2.71-.69 3.11 1.26.22 1.06.3 2.15.34 3.24.06 2 .05 3.99.05 5.99v49.04z"/><path d="m1900.32 336.16c0 16.89 0 33.78.01 50.67 0 2.18.02 4.37.28 6.52.43 3.65 2.58 5.93 6.13 6.77 2.11.5 4.27.84 6.41 1.16 3.05.45 6.12.77 9.17 1.23.68.1 1.34.52 1.95.89.26.16.5.56.5.85 0 .25-.35.67-.58.71-1.25.17-2.52.33-3.78.33-17.81.02-35.62.02-53.43 0-1.09 0-2.19-.03-3.26-.21-.4-.07-.72-.6-1.08-.92.35-.38.65-1.03 1.06-1.11 3.18-.64 6.39-1.2 9.59-1.73 2.5-.42 5.05-.6 7.5-1.19 3.76-.91 5.45-3.11 5.69-6.94.07-1.09.04-2.18.04-3.27 0-29.6 0-59.21 0-88.81 0-1.27.05-2.55-.05-3.81-.24-3.22-1.81-5.01-5.03-5.41-2.15-.26-4.35-.14-6.53-.2s-4.36-.05-6.52-.26c-.53-.05-.99-.83-1.48-1.27.36-.36.66-.93 1.09-1.03 1.93-.49 3.89-.85 5.84-1.26 3.19-.67 6.4-1.23 9.55-2.03 4.48-1.14 8.44-3.29 11.79-6.51.39-.38.75-.83 1.22-1.08.76-.39 1.67-1.01 2.39-.87 1.27.25 1.31 1.59 1.36 2.67.1 2.36.17 4.72.17 7.08.01 16.35 0 32.69 0 49.04z"/><path d="m1181.33 256.8c-2.19-.12-2.71.26-2.95 2.11-.99 7.73-1.87 15.48-2.99 23.19-1.85 12.78-7.03 24-16.53 32.92-5.09 4.78-11.02 8.19-17.98 9.71-5.68 1.24-11.28 2.73-17.19 2.39-7.67-.43-14.68-2.26-20.07-8.21-1.07-1.18-2.03-1.06-3.21.23-.61.67-1.16 1.4-1.73 2.1-6.82 8.5-13.87 16.82-20.37 25.56-5.56 7.47-12.31 13.82-18.4 20.78-1.98 2.27-4.68 3.99-7.25 5.66-2.89 1.88-6.23 1.83-9.51 1.31-2.86-.46-4.28-3.15-2.96-5.76.8-1.59 1.98-3.03 3.16-4.4 6.77-7.82 13.64-15.56 20.4-23.4 9.72-11.28 19.35-22.63 29.04-33.93 12.17-14.2 24.32-28.42 36.58-42.54 7.02-8.09 13.75-16.43 21.15-24.2 3.74-3.92 6.78-8.52 8.12-13.99.36-1.46 1.39-1.76 2.35-.72 3.59 3.85 7.12 7.76 10.66 11.66.49.54.86 1.21 1.42 1.65 5.23 4.06 7.56 10.09 10.63 15.62.99 1.77.36 2.51-1.84 2.38-.18-.01-.36-.07-.53-.11zm-72.12 56.6c3.06-.31 6.21-.28 9.16-1.01 5.27-1.31 10.5-2.88 15.43-5.24 6.29-3 12.12-6.66 16.61-12.09 3.99-4.83 7.14-10.06 7.07-16.68-.02-1.6.43-3.24.85-4.81.61-2.27-.11-3.73-2.1-5-5.06-3.21-9.92-6.7-14.23-10.9-1.53-1.49-2.19-1.41-3.61.07-.63.65-1.18 1.38-1.77 2.07-11.72 13.62-23.45 27.24-35.16 40.88-9.93 11.57-19.83 23.17-29.76 34.75-7.21 8.41-14.43 16.8-21.65 25.2-2.13 2.47-4.29 4.92-6.41 7.4-.72.85-1.38 1.86-.9 2.96.57 1.31 1.92 1.65 3.21 1.61 2.4-.08 4.72-.73 6.63-2.18 2.16-1.64 4.22-3.44 6.14-5.36 2.31-2.31 4.41-4.82 6.62-7.24 2.57-2.81 5.32-5.46 7.7-8.42 8.19-10.17 16.17-20.52 24.41-30.66 5.37-6.61 3.01-5.53 11.76-5.35zm16.36 11.29c7.53-.13 14.78-1.84 21.59-4.88 3.58-1.59 6.95-3.97 9.89-6.58 4.22-3.73 7.44-8.41 10.14-13.37 1.21-2.21 2.33-4.54 3.01-6.95 1.98-6.97 3.49-14.05 4.02-21.31.11-1.46-.31-2.37-1.53-3.15-2.13-1.37-4.24-2.8-6.24-4.35-1.93-1.5-3.24-3.57-3.39-5.99-.25-3.98-.21-7.98-.19-11.96 0-1.41.9-2.39 2.33-2.61 1.79-.27 3.61-.3 5.41-.47 1.14-.11 1.6-1.01.85-1.87-3.08-3.56-6.21-7.09-9.37-10.59-.87-.96-1.97-.73-2.58.56-2.04 4.29-4.6 8.2-7.89 11.65-2.5 2.62-4.84 5.4-7.35 8.01-2.04 2.12-2.17 3.24.02 5.51.75.78 1.57 1.51 2.45 2.15 4.25 3.09 8.49 6.18 12.82 9.16 1.56 1.07 2.19 2.25 1.71 4.12-.99 3.86-1.93 7.71-2.03 11.75-.04 1.74-.81 3.55-1.61 5.15-2.13 4.23-4.76 8.19-8.33 11.34-6.6 5.84-14.16 9.99-22.61 12.6-6.26 1.94-12.45 3.94-19.14 3.29-.53-.05-1.56.54-1.59.91-.06.58.43 1.31.87 1.82.46.53 1.13.89 1.72 1.31 5.1 3.6 10.88 4.79 17.01 4.75zm39.5-73.23h.03c0 .54.03 1.09 0 1.63-.33 5.75 2.47 9.62 7.33 12.29 1.63.9 2.8.49 3.14-1.46s.36-3.95.45-5.93c.06-1.46-.79-2.38-2.11-2.82-1.37-.46-2.8-.73-4.16-1.22-1.14-.41-1.56-1.66-.94-2.69.75-1.24 1.62-2.4 2.4-3.62.38-.6-.13-1.52-.85-1.59-4.72-.44-5.74.25-5.29 4.86.02.18 0 .36 0 .54zm11.13-4.18c-.35.06-.56.05-.7.14-1.44.86-2.93 2.01-2.84 3.69.1 1.81 2.06 1.64 3.42 1.96.53.12 1.05.3 1.58.39 1.25.2 2.02-.84 1.47-2.06-.52-1.15-1.11-2.28-1.78-3.34-.25-.39-.83-.57-1.15-.78z"/><path d="m659.31 229.59c-.19.36-.26.8-.49.91-1.45.73-2.92 1.43-4.41 2.08-4.38 1.89-7.4 5.07-9.22 9.46-.55 1.33-1.15 2.65-1.79 3.94-.11.23-.54.5-.76.45-.3-.06-.63-.37-.77-.66-.4-.81-.76-1.64-1.06-2.5-2.24-6.4-6.47-10.76-13.01-12.8-.51-.16-.95-.52-1.43-.76-.51-.26-.53-.52-.02-.77.97-.48 1.93-.97 2.91-1.42 5.35-2.43 9.26-6.23 11.35-11.8.32-.85.67-1.69 1.12-2.47.25-.42.75-.69 1.14-1.03.32.41.68.8.93 1.25.27.47.47.98.65 1.49 2.35 6.7 6.66 11.51 13.47 13.91.48.17.92.47 1.38.71z"/><path d="m1908.62 230.07c-.1.13-.17.33-.3.39-1.13.57-2.24 1.2-3.41 1.67-5 2.01-8.33 5.63-10.42 10.52-.56 1.3-1.28 2.54-1.93 3.8-1.77-.67-1.72-2.47-2.28-3.83-2.25-5.45-5.8-9.57-11.45-11.65-.17-.06-.35-.11-.5-.2-.78-.44-1.55-.89-2.32-1.34.68-.49 1.33-1.03 2.04-1.47.61-.38 1.28-.68 1.93-.98 4.87-2.22 8.06-6 10.2-10.81.6-1.36.58-3.18 2.38-3.82.66 1.25 1.42 2.47 1.97 3.77 2.41 5.77 6.15 10.2 12.22 12.35.51.18 1.01.42 1.44.74.23.17.3.57.44.86z"/><path d="m760.05 576.7c-.08 2.3-1.95 4.01-4.26 3.89-1.98-.1-3.66-1.86-3.74-3.9-.09-2.22 1.82-4.19 4.02-4.16 2.34.04 4.06 1.83 3.98 4.17z"/><path d="m1485.22 127.29c.08 2.21-1.83 4.18-4.02 4.15-2.15-.03-3.78-1.51-3.98-3.59-.22-2.31 1.46-4.36 3.66-4.46 2.19-.1 4.27 1.77 4.35 3.9z"/><path d="m1414.41 653.46c.09 2.18-1.87 4.28-3.97 4.27-2.02 0-3.88-1.65-4.06-3.58-.21-2.3 1.39-4.25 3.67-4.47 2.23-.21 4.28 1.56 4.36 3.77z"/><path d="m818.98 619.8c.1 2.21-1.73 4.12-4.01 4.17-2.08.05-4.07-2.03-4.04-4.22.04-2 1.74-3.73 3.78-3.83 2.32-.12 4.16 1.56 4.27 3.87z"/><path d="m1410.56 112.96c-2.36.09-4.14-1.56-4.2-3.9-.06-2.19 1.85-4.1 4.09-4.09 2.11 0 4 2.06 3.95 4.28-.05 2.01-1.73 3.64-3.84 3.72z"/><path d="m1671.85 569.27c2.15-.09 4.27 1.86 4.33 3.97.06 2.2-1.91 4.21-4.06 4.16-2.08-.05-3.77-1.61-3.98-3.67-.23-2.24 1.55-4.37 3.71-4.46z"/><path d="m612.87 559.37c2.34-.06 4.19 1.73 4.09 3.97-.08 2-1.76 3.83-3.67 4.01-2.11.2-4.28-1.7-4.35-3.82-.08-2.37 1.55-4.1 3.93-4.16z"/><path d="m612.93 22.62c-2.35-.05-4.12-1.89-3.95-4.13.16-2.23 2.22-4.11 4.29-3.91 1.92.18 3.6 1.99 3.69 3.98.1 2.23-1.76 4.11-4.03 4.06z"/><path d="m881.23 101.68c2.16-.14 4.22 1.73 4.27 3.88.06 2.36-1.58 4.07-3.96 4.12-2.02.04-3.72-1.47-4.02-3.55-.29-2.07 1.57-4.3 3.7-4.44z"/><path d="m546.41 583.61c-.06 2.33-1.42 3.64-3.79 3.66-2.49.02-3.99-1.63-3.81-4.19.14-2.12 1.86-3.86 3.8-3.87 2.15 0 3.86 1.98 3.8 4.4z"/><path d="m818.97 75.02c.08 2.39-1.5 4.09-3.89 4.17-2.22.07-4.07-1.74-4.1-4.02-.02-1.87 1.78-3.81 3.67-3.97 2.15-.18 4.25 1.68 4.32 3.82z"/><path d="m483.02 74.92c.07 2.34-1.69 4.2-3.94 4.13-2.22-.06-4.17-2.06-4.07-4.15.1-1.94 1.8-3.67 3.81-3.86 2.26-.21 4.12 1.51 4.2 3.87z"/><path d="m1151.91 561.82c2.23-.08 4.22 1.79 4.22 3.95 0 2.36-1.68 4.07-4.04 4.1-2.12.03-4.03-1.98-3.99-4.2.04-1.88 1.92-3.79 3.81-3.85z"/><path d="m685.49 7.79c2.18-.13 4.26 1.67 4.39 3.82.14 2.09-1.81 4.12-4.02 4.2-2.04.07-3.78-1.48-3.98-3.56-.23-2.36 1.36-4.32 3.61-4.46z"/><path d="m1485.19 672.61c-.29 2.11-2.49 3.54-4.92 3.17-2.13-.33-3.3-1.99-3.04-4.36.26-2.33 2.22-3.65 4.73-3.2 1.89.34 3.48 2.51 3.22 4.39z"/><path d="m1156.12 21.72c-.12 2.08-2.42 4.01-4.43 3.72-1.78-.26-3.69-2.46-3.59-4.14.14-2.27 2.11-4.09 4.25-3.92 2.29.18 3.91 2.04 3.78 4.34z"/><path d="m1089.59 52.12c-.03 1.95-1.83 3.74-3.87 3.85-1.97.11-4.31-2.32-4.12-4.27.2-2.06 2.01-3.79 3.97-3.78 2.38.01 4.06 1.77 4.02 4.2z"/><path d="m1298.2 565.34c-.01 2.19-1.62 4.09-3.5 4.14-2.22.06-4.15-1.84-4.18-4.09-.03-2.51 1.59-4.07 4.1-3.97 2.21.09 3.59 1.61 3.58 3.93z"/><path d="m1085.7 592.35c2.31.11 4.1 2.11 3.9 4.35-.2 2.16-1.83 3.67-3.98 3.68-2.2 0-4.21-2.14-4-4.28.18-1.86 2.33-3.83 4.08-3.75z"/><path d="m479.09 623.48c-2.15-.03-4.06-1.7-4.07-3.56-.02-2.26 1.85-4.13 4.12-4.13 2.5 0 4.01 1.61 3.88 4.15-.12 2.22-1.62 3.58-3.93 3.55z"/><path d="m1553.11 117.13c-1.97.15-3.77-1.45-4.04-3.57-.31-2.44 1.14-4.22 3.6-4.42 2.28-.19 3.84 1.13 4.01 3.39.18 2.42-1.38 4.43-3.57 4.6z"/><path d="m1676.25 28.79c-.02 2.11-2.1 3.89-4.43 3.79-2.12-.08-3.68-1.75-3.66-3.9s1.61-3.75 3.76-3.8c2.32-.05 4.35 1.78 4.33 3.9z"/><path d="m756.02 35.83c-2.38-.09-4.21-2-3.99-4.17.2-2.02 1.92-3.5 4.1-3.52 2.38-.03 4.06 1.79 3.88 4.18-.16 2.16-1.8 3.61-3.99 3.52z"/><path d="m1223.34 544.5c2.17.02 3.88 2 3.76 4.37-.11 2.25-1.55 3.61-3.83 3.62-2.4 0-3.92-1.7-3.77-4.22.12-2.07 1.88-3.79 3.84-3.77z"/><path d="m685.9 560.24c-2.31.07-3.84-1.24-4.01-3.44-.19-2.55 1.26-4.22 3.72-4.28 2.31-.06 4.27 1.82 4.19 3.99-.07 2-1.82 3.66-3.91 3.73z"/><path d="m546.4 39c-.08 2.05-1.82 3.8-3.77 3.81-2.14.01-3.94-2.03-3.83-4.34.11-2.23 1.6-3.67 3.82-3.67 2.45 0 3.89 1.6 3.79 4.2z"/><path d="m1360.27 59.81c-.05 2.03-1.8 3.86-3.74 3.92-2.13.06-3.95-1.93-3.92-4.29.02-2.28 1.52-3.84 3.66-3.82 2.33.02 4.06 1.84 4 4.19z"/><path d="m1356.46 608.14c-2.23 0-3.74-1.43-3.84-3.66-.11-2.34 1.68-4.36 3.84-4.36s3.95 2.03 3.85 4.35c-.1 2.21-1.62 3.66-3.85 3.67z"/><path d="m1025.29 631.32c.05 2.55-1.48 4.09-3.97 4.01-2.21-.07-3.61-1.54-3.65-3.83-.04-2.34 1.81-4.26 4-4.15 1.98.1 3.58 1.85 3.62 3.97z"/><path d="m881.62 646.41c2.35.11 3.98 1.91 3.87 4.3-.09 2.1-1.74 3.48-4.06 3.38-2.39-.1-4.2-2.03-3.94-4.2.25-2.03 2.07-3.57 4.13-3.48z"/><path d="m957.84 115.1c0 2.4-1.76 4.31-3.93 4.25-1.97-.06-3.64-1.82-3.69-3.91-.06-2.42 1.57-4.11 3.98-4.13 2.18-.02 3.63 1.49 3.64 3.79z"/><path d="m1556.68 657.51c.05 2.51-1.51 4.1-3.97 4.03-2.21-.06-3.64-1.54-3.68-3.8-.05-2.31 1.82-4.27 3.98-4.17 2.01.09 3.63 1.83 3.67 3.93z"/><path d="m954.12 663.75c-2.28.05-3.76-1.3-3.9-3.55-.16-2.4 1.49-4.39 3.69-4.45 2.17-.06 4.01 1.92 3.95 4.24-.06 2.23-1.53 3.71-3.74 3.76z"/><path d="m1294.33 24.76c-2.26-.15-3.93-2.09-3.78-4.4.13-1.92 1.98-3.62 3.99-3.66 2.05-.05 3.78 2.08 3.65 4.48-.12 2.23-1.73 3.72-3.87 3.58z"/><path d="m1222.93 8.02c-2.08-.09-3.65-2.23-3.42-4.65.19-2.02 1.56-3.35 3.49-3.38 2.54-.04 4.33 1.98 4.08 4.57-.19 1.9-2.15 3.54-4.14 3.45z"/><path d="m1615.29 70.66c2.2.11 3.59 1.59 3.58 3.82 0 2.43-1.65 3.98-4.1 3.85-2.38-.12-3.79-1.86-3.54-4.36.22-2.14 1.79-3.42 4.05-3.31z"/><path d="m1021.1 90.87c-2.06-.11-3.62-2.27-3.4-4.67.21-2.19 1.89-3.57 4.05-3.32 2.27.26 3.76 2.19 3.52 4.57-.19 1.86-2.21 3.53-4.17 3.43z"/><path d="m1615.3 615.09c2.21.15 3.8 2.2 3.52 4.52-.25 2.07-2.06 3.63-4.05 3.46-2.23-.18-3.8-2.2-3.52-4.53.25-2.09 2.02-3.6 4.05-3.46z"/></svg>